<svg width="77" height="84" viewBox="0 0 77 84" fill="none" xmlns="http://www.w3.org/2000/svg">
<path d="M39.7846 39.7119C42.6529 41.3679 46.7707 39.6115 48.9807 35.7837C51.1907 31.9558 50.6529 27.5115 47.7846 25.8555C44.9163 24.1995 40.7984 25.9558 38.5884 29.7837C36.3784 33.6115 36.9163 38.0559 39.7846 39.7119Z" fill="url(#paint0_linear_25_3267)"/>
<path d="M51.8583 50.4248C57.9588 38.2984 59.519 29.4119 59.3405 23.249C59.2319 19.6852 58.5435 17.0615 57.8454 15.2867C57.5753 14.5893 57.2496 13.9148 56.8715 13.2695C56.7621 13.0827 56.6457 12.8999 56.5227 12.7217C56.3379 12.4256 56.0848 12.1781 55.7847 12C55.4584 11.8176 55.091 11.7216 54.7172 11.7209C54.5001 11.7109 54.2826 11.7086 54.0653 11.714C53.3106 11.7311 52.5584 11.8064 51.8153 11.9392C49.9176 12.2661 47.2856 13.0328 44.1373 14.7578C38.7047 17.7273 31.8084 23.4961 24.48 34.6133L15.6422 37.9447L15.6184 37.9541C13.5029 38.7803 11.7316 40.3021 10.5961 42.269L4.00006 53.6936C3.79018 54.0571 3.7 54.4775 3.74229 54.8951C3.78458 55.3127 3.95721 55.7065 4.23571 56.0205C4.51421 56.3346 4.88447 56.5531 5.29404 56.645C5.70361 56.737 6.13173 56.6977 6.51775 56.5328L13.4149 53.5867C14.4339 53.1496 15.6698 53.041 17.1599 53.1161C18.1172 53.17 18.978 53.279 19.8869 53.3927L20.7408 53.4977C22.3097 56.3804 24.8402 58.7974 27.7847 60.4974C30.7292 62.1974 34.0876 63.1804 37.3685 63.0977C37.5406 63.3357 37.7138 63.5557 37.8815 63.7773C38.4393 64.515 38.9641 65.206 39.4895 66.0081C40.2995 67.261 40.8234 68.3856 40.9545 69.4867L41.8516 76.9328C41.9018 77.3496 42.0819 77.74 42.3663 78.0487C42.6507 78.3574 43.025 78.5688 43.4363 78.653C43.8475 78.7371 44.2748 78.6898 44.6576 78.5176C45.0404 78.3454 45.3594 78.0571 45.5693 77.6936L52.1653 66.269C53.3009 64.3021 53.7332 62.0073 53.3909 59.7621L51.8583 50.4248ZM48.7511 56.1826L48.6411 56.3731C46.9091 59.373 44.4873 61.2957 41.763 62.2863C42.1408 62.8 42.5145 63.3206 42.8372 63.8256C43.7942 65.288 44.6885 67.0191 44.9277 69.0047L45.1052 70.4974L48.7012 64.269C49.3806 63.0923 49.6406 61.7197 49.4384 60.3761L48.7511 56.1826ZM19.2463 49.2863C18.7421 46.4317 19.1963 43.373 20.9283 40.3731L21.0363 40.186L17.0649 41.6806C15.7989 42.1779 14.7394 43.0905 14.0602 44.269L10.4642 50.4974L11.8436 49.9082C13.6828 49.1226 15.6311 49.028 17.3761 49.1256C17.9728 49.1561 18.6126 49.216 19.2463 49.2863ZM53.6698 15.735C53.8081 15.9995 53.9668 16.3406 54.1267 16.7516C54.6585 18.1025 55.2507 20.2688 55.3426 23.3657C55.5154 29.5623 53.703 39.6056 45.177 54.3731C43.461 57.3453 40.9214 58.752 38.1243 59.0446C35.4677 59.326 32.4901 58.5953 29.7847 57.0333C27.0792 55.4713 24.9576 53.258 23.873 50.8166C22.7265 48.2425 22.6764 45.3453 24.3924 42.3731C32.7564 27.8862 40.5435 21.2785 46.0577 18.2637C48.8145 16.7607 51.0276 16.1355 52.4943 15.8831C52.9581 15.7998 53.3512 15.7589 53.6698 15.735Z" fill="url(#paint1_linear_25_3267)"/>
<path d="M28.1858 67.7051C26.3371 67.0672 24.513 66.2266 22.7844 65.2286C21.0524 64.2286 19.4158 63.0712 17.939 61.7891L18.7988 68.9319C18.8359 69.2402 18.9443 69.5355 19.1154 69.7947C19.2865 70.0538 19.5155 70.2695 19.7844 70.4247C20.0533 70.58 20.3547 70.6705 20.6646 70.6891C20.9745 70.7077 21.2845 70.6539 21.5701 70.5319L28.1858 67.7051Z" fill="#FF00B8"/>
<defs>
<linearGradient id="paint0_linear_25_3267" x1="47.7846" y1="25.8555" x2="39.7846" y2="39.7119" gradientUnits="userSpaceOnUse">
<stop stop-color="white"/>
<stop offset="1" stop-color="#FF00B8"/>
</linearGradient>
<linearGradient id="paint1_linear_25_3267" x1="55.7847" y1="12" x2="23.7846" y2="67.4256" gradientUnits="userSpaceOnUse">
<stop stop-color="white"/>
<stop offset="1" stop-color="#FF00B8"/>
</linearGradient>
</defs>
</svg>
