<svg width="34" height="38" viewBox="0 0 34 38" fill="none" xmlns="http://www.w3.org/2000/svg">
<path d="M17.7808 17.9987C19.0356 18.7232 20.8372 17.9548 21.8041 16.2801C22.771 14.6054 22.5356 12.661 21.2808 11.9365C20.0259 11.212 18.2243 11.9804 17.2574 13.6551C16.2906 15.3298 16.5259 17.2742 17.7808 17.9987Z" fill="url(#paint0_linear_42_1287)"/>
<path d="M23.063 22.6858C25.7319 17.3805 26.4145 13.4927 26.3365 10.7965C26.2889 9.23729 25.9878 8.08943 25.6823 7.31293C25.5641 7.00784 25.4217 6.71272 25.2563 6.43041C25.2084 6.34866 25.1575 6.26872 25.1037 6.19075C25.0228 6.06121 24.9121 5.95294 24.7808 5.875C24.638 5.79522 24.4773 5.75318 24.3138 5.75289C24.2188 5.74853 24.1236 5.74753 24.0285 5.74988C23.6984 5.75736 23.3693 5.79029 23.0442 5.84838C22.2139 5.99142 21.0624 6.32687 19.685 7.08154C17.3083 8.38072 14.2912 10.9045 11.085 15.7683L7.21845 17.2258L7.20802 17.2299C6.28247 17.5914 5.50755 18.2572 5.01075 19.1177L2.125 24.1159C2.03317 24.275 1.99372 24.4589 2.01222 24.6416C2.03073 24.8243 2.10625 24.9966 2.22809 25.134C2.34994 25.2714 2.51193 25.367 2.69111 25.4072C2.8703 25.4474 3.0576 25.4303 3.22649 25.3581L6.24398 24.0692C6.68981 23.878 7.2305 23.8305 7.88241 23.8633C8.30124 23.8869 8.67785 23.9346 9.0755 23.9843L9.44908 24.0303C10.1355 25.2914 11.2426 26.3489 12.5308 27.0926C13.819 27.8364 15.2883 28.2664 16.7237 28.2303C16.799 28.3344 16.8747 28.4306 16.9481 28.5276C17.1922 28.8503 17.4218 29.1526 17.6516 29.5036C18.006 30.0517 18.2352 30.5437 18.2926 31.0254L18.685 34.2831C18.707 34.4654 18.7858 34.6362 18.9102 34.7713C19.0346 34.9064 19.1984 34.9989 19.3783 35.0357C19.5583 35.0725 19.7452 35.0518 19.9127 34.9764C20.0802 34.9011 20.2197 34.775 20.3115 34.616L23.1973 29.6177C23.6941 28.7572 23.8832 27.7532 23.7335 26.7709L23.063 22.6858ZM21.7036 25.2049L21.6554 25.2882C20.8977 26.6007 19.8382 27.4419 18.6463 27.8752C18.8116 28.1 18.9751 28.3278 19.1163 28.5487C19.535 29.1885 19.9262 29.9459 20.0309 30.8146L20.1085 31.4676L21.6817 28.7427C21.979 28.2279 22.0927 27.6274 22.0043 27.0395L21.7036 25.2049ZM8.79525 22.1877C8.57463 20.9389 8.77334 19.6007 9.53109 18.2882L9.57834 18.2064L7.84088 18.8603C7.28699 19.0778 6.82346 19.4771 6.52629 19.9927L4.95304 22.7176L5.55654 22.4598C6.3612 22.1161 7.21358 22.0748 7.97701 22.1175C8.23808 22.1308 8.51798 22.157 8.79525 22.1877ZM23.8555 7.50906C23.916 7.6248 23.9855 7.77402 24.0554 7.95384C24.2881 8.54485 24.5472 9.49262 24.5874 10.8475C24.663 13.5585 23.87 17.9525 20.1399 24.4132C19.3891 25.7136 18.2781 26.329 17.0544 26.457C15.8921 26.5801 14.5894 26.2605 13.4058 25.5771C12.2221 24.8937 11.2939 23.9254 10.8194 22.8573C10.3178 21.7311 10.2959 20.4636 11.0466 19.1632C14.7059 12.8252 18.1128 9.93434 20.5252 8.61536C21.7313 7.95782 22.6995 7.68429 23.3412 7.57384C23.5441 7.53741 23.7161 7.51951 23.8555 7.50906Z" fill="url(#paint1_linear_42_1287)"/>
<path d="M12.7062 30.2465C11.8974 29.9674 11.0994 29.5996 10.3431 29.163C9.58536 28.7255 8.86935 28.2191 8.22327 27.6582L8.59941 30.7832C8.61566 30.9181 8.66309 31.0473 8.73793 31.1606C8.81278 31.274 8.91299 31.3684 9.03063 31.4363C9.14827 31.5042 9.28011 31.5438 9.41571 31.552C9.5513 31.5601 9.68693 31.5366 9.81185 31.4832L12.7062 30.2465Z" fill="black"/>
<defs>
<linearGradient id="paint0_linear_42_1287" x1="21.2808" y1="11.9365" x2="17.7808" y2="17.9987" gradientUnits="userSpaceOnUse">
<stop stop-color="#4D4D4D"/>
<stop offset="1"/>
</linearGradient>
<linearGradient id="paint1_linear_42_1287" x1="24.7808" y1="5.875" x2="10.7808" y2="30.1237" gradientUnits="userSpaceOnUse">
<stop stop-color="#4D4D4D"/>
<stop offset="1"/>
</linearGradient>
</defs>
</svg>
