<svg width="34" height="37" viewBox="0 0 34 37" fill="none" xmlns="http://www.w3.org/2000/svg">
<path d="M17.4681 18.3102C18.723 19.0347 20.5246 18.2663 21.4915 16.5916C22.4583 14.917 22.223 12.9725 20.9681 12.248C19.7133 11.5235 17.9117 12.292 16.9448 13.9666C15.9779 15.6413 16.2133 17.5857 17.4681 18.3102Z" fill="url(#paint0_linear_42_1293)"/>
<path d="M22.7505 22.9983C25.4194 17.693 26.102 13.8052 26.024 11.109C25.9764 9.54979 25.6753 8.40192 25.3698 7.62543C25.2516 7.32034 25.1092 7.02522 24.9438 6.74291C24.8959 6.66116 24.845 6.58122 24.7912 6.50325C24.7103 6.37371 24.5996 6.26544 24.4683 6.1875C24.3255 6.10771 24.1648 6.06568 24.0013 6.06539C23.9063 6.06103 23.8111 6.06003 23.716 6.06238C23.3859 6.06986 23.0568 6.10279 22.7317 6.16088C21.9014 6.30392 20.7499 6.63937 19.3725 7.39404C16.9958 8.69321 13.9787 11.217 10.7725 16.0808L6.90596 17.5383L6.89552 17.5424C5.96998 17.9039 5.19505 18.5697 4.69825 19.4302L1.8125 24.4284C1.72068 24.5875 1.68122 24.7714 1.69973 24.9541C1.71823 25.1368 1.79375 25.3091 1.9156 25.4465C2.03744 25.5839 2.19943 25.6795 2.37862 25.7197C2.5578 25.7599 2.74511 25.7427 2.91399 25.6706L5.93148 24.3817C6.37731 24.1905 6.91801 24.1429 7.56992 24.1758C7.98874 24.1994 8.36535 24.2471 8.76301 24.2968L9.13659 24.3428C9.82297 25.6039 10.9301 26.6614 12.2183 27.4051C13.5065 28.1489 14.9758 28.5789 16.4112 28.5428C16.4865 28.6468 16.5622 28.7431 16.6356 28.84C16.8797 29.1628 17.1093 29.4651 17.3391 29.8161C17.6935 30.3642 17.9227 30.8562 17.9801 31.3379L18.3725 34.5956C18.3945 34.7779 18.4733 34.9487 18.5977 35.0838C18.7221 35.2189 18.8859 35.3114 19.0658 35.3482C19.2458 35.385 19.4327 35.3643 19.6002 35.2889C19.7677 35.2136 19.9072 35.0875 19.999 34.9284L22.8848 29.9302C23.3816 29.0697 23.5707 28.0657 23.421 27.0834L22.7505 22.9983ZM21.3911 25.5174L21.3429 25.6007C20.5852 26.9132 19.5257 27.7544 18.3338 28.1877C18.4991 28.4125 18.6626 28.6403 18.8038 28.8612C19.2225 29.501 19.6137 30.2584 19.7184 31.1271L19.796 31.7801L21.3692 29.0552C21.6665 28.5404 21.7802 27.9399 21.6918 27.352L21.3911 25.5174ZM8.48275 22.5002C8.26213 21.2514 8.46084 19.9132 9.21859 18.6007L9.26584 18.5189L7.52838 19.1728C6.97449 19.3903 6.51096 19.7896 6.2138 20.3052L4.64055 23.0301L5.24404 22.7723C6.04871 22.4286 6.90108 22.3873 7.66452 22.43C7.92558 22.4433 8.20548 22.4695 8.48275 22.5002ZM23.543 7.82155C23.6035 7.9373 23.673 8.08652 23.7429 8.26634C23.9756 8.85735 24.2347 9.80512 24.2749 11.16C24.3505 13.871 23.5575 18.265 19.8274 24.7257C19.0766 26.0261 17.9656 26.6415 16.7419 26.7695C15.5796 26.8926 14.2769 26.573 13.0933 25.8896C11.9096 25.2062 10.9814 24.2379 10.5069 23.1698C10.0053 22.0436 9.98338 20.7761 10.7341 19.4757C14.3934 13.1377 17.8003 10.2468 20.2127 8.92786C21.4188 8.27032 22.387 7.99679 23.0287 7.88634C23.2316 7.84991 23.4036 7.832 23.543 7.82155Z" fill="url(#paint1_linear_42_1293)"/>
<path d="M13.2689 29.683C12.46 29.4039 11.662 29.0361 10.9058 28.5995C10.148 28.162 9.43197 27.6557 8.78589 27.0947L9.16204 30.2197C9.17828 30.3546 9.22571 30.4838 9.30056 30.5972C9.3754 30.7105 9.47561 30.8049 9.59325 30.8728C9.71089 30.9407 9.84273 30.9803 9.97833 30.9885C10.1139 30.9966 10.2496 30.9731 10.3745 30.9197L13.2689 29.683Z" fill="#FF00B8"/>
<defs>
<linearGradient id="paint0_linear_42_1293" x1="20.9681" y1="12.248" x2="17.4681" y2="18.3102" gradientUnits="userSpaceOnUse">
<stop stop-color="white"/>
<stop offset="1" stop-color="#FF00B8"/>
</linearGradient>
<linearGradient id="paint1_linear_42_1293" x1="24.4683" y1="6.1875" x2="10.4683" y2="30.4362" gradientUnits="userSpaceOnUse">
<stop stop-color="white"/>
<stop offset="1" stop-color="#FF00B8"/>
</linearGradient>
</defs>
</svg>
