<svg width="75" height="82" viewBox="0 0 75 82" fill="none" xmlns="http://www.w3.org/2000/svg">
<path d="M37.7843 39.7099C40.6526 41.3659 44.7704 39.6096 46.9804 35.7817C49.1904 31.9539 48.6526 27.5095 45.7843 25.8535C42.916 24.1975 38.7981 25.9539 36.5881 29.7817C34.3781 33.6096 34.916 38.0539 37.7843 39.7099Z" fill="url(#paint0_linear_25_3251)"/>
<path d="M49.8582 50.4248C55.9587 38.2984 57.5189 29.4119 57.3405 23.249C57.2318 19.6852 56.5434 17.0615 55.8453 15.2867C55.5752 14.5893 55.2495 13.9148 54.8715 13.2695C54.762 13.0827 54.6456 12.8999 54.5226 12.7217C54.3378 12.4256 54.0847 12.1781 53.7846 12C53.4583 11.8176 53.0909 11.7216 52.7172 11.7209C52.5 11.7109 52.2826 11.7086 52.0653 11.714C51.3106 11.7311 50.5583 11.8064 49.8152 11.9392C47.9175 12.2661 45.2855 13.0328 42.1373 14.7578C36.7047 17.7273 29.8084 23.4961 22.4799 34.6133L13.6422 37.9447L13.6183 37.954C11.5028 38.7803 9.73155 40.3021 8.596 42.269L2 53.6936C1.79012 54.0571 1.69994 54.4775 1.74223 54.8951C1.78452 55.3127 1.95715 55.7065 2.23565 56.0205C2.51415 56.3346 2.88441 56.5531 3.29398 56.645C3.70355 56.737 4.13167 56.6977 4.51769 56.5328L11.4148 53.5867C12.4338 53.1496 13.6697 53.041 15.1598 53.1161C16.1171 53.17 16.9779 53.279 17.8869 53.3927L18.7408 53.4977C20.3096 56.3804 22.8401 58.7974 25.7846 60.4974C28.7291 62.1974 32.0876 63.1804 35.3684 63.0977C35.5405 63.3357 35.7137 63.5557 35.8814 63.7773C36.4393 64.515 36.9641 65.206 37.4894 66.0081C38.2995 67.261 38.8234 68.3856 38.9544 69.4867L39.8515 76.9328C39.9017 77.3496 40.0818 77.74 40.3662 78.0487C40.6506 78.3574 41.025 78.5688 41.4362 78.653C41.8474 78.7371 42.2747 78.6898 42.6576 78.5176C43.0404 78.3454 43.3593 78.0571 43.5692 77.6936L50.1652 66.269C51.3008 64.3021 51.7331 62.0073 51.3909 59.7621L49.8582 50.4248ZM46.751 56.1826L46.641 56.3731C44.909 59.373 42.4872 61.2957 39.7629 62.2863C40.1407 62.8 40.5145 63.3206 40.8372 63.8256C41.7942 65.288 42.6885 67.0191 42.9277 69.0047L43.1051 70.4974L46.7011 64.269C47.3806 63.0923 47.6405 61.7197 47.4384 60.376L46.751 56.1826ZM17.2463 49.2863C16.742 46.4317 17.1962 43.373 18.9282 40.3731L19.0362 40.186L15.0649 41.6806C13.7988 42.1779 12.7393 43.0905 12.0601 44.269L8.4641 50.4974L9.84352 49.9082C11.6828 49.1226 13.631 49.028 15.376 49.1256C15.9728 49.1561 16.6125 49.216 17.2463 49.2863ZM51.6698 15.735C51.808 15.9995 51.9668 16.3406 52.1267 16.7516C52.6585 18.1025 53.2507 20.2688 53.3425 23.3657C53.5154 29.5623 51.7029 39.6056 43.1769 54.3731C41.4609 57.3453 38.9213 58.7519 36.1243 59.0446C33.4677 59.326 30.4901 58.5953 27.7846 57.0333C25.0791 55.4713 22.9576 53.258 21.873 50.8166C20.7264 48.2425 20.6763 45.3453 22.3923 42.3731C30.7563 27.8862 38.5434 21.2785 44.0576 18.2637C46.8144 16.7607 49.0275 16.1355 50.4943 15.8831C50.958 15.7998 51.3512 15.7589 51.6698 15.735Z" fill="url(#paint1_linear_25_3251)"/>
<path d="M28.186 65.7051C26.3373 65.0672 24.5132 64.2266 22.7846 63.2286C21.0526 62.2286 19.416 61.0712 17.9392 59.7891L18.799 66.9319C18.8361 67.2402 18.9445 67.5355 19.1156 67.7947C19.2867 68.0538 19.5157 68.2695 19.7846 68.4247C20.0535 68.58 20.3549 68.6705 20.6648 68.6891C20.9747 68.7077 21.2847 68.6539 21.5703 68.5319L28.186 65.7051Z" fill="black"/>
<defs>
<linearGradient id="paint0_linear_25_3251" x1="45.7843" y1="25.8535" x2="37.7843" y2="39.7099" gradientUnits="userSpaceOnUse">
<stop stop-color="#4D4D4D"/>
<stop offset="1"/>
</linearGradient>
<linearGradient id="paint1_linear_25_3251" x1="53.7846" y1="12" x2="21.7846" y2="67.4256" gradientUnits="userSpaceOnUse">
<stop stop-color="#4D4D4D"/>
<stop offset="1"/>
</linearGradient>
</defs>
</svg>
